<?xml version="1.0" standalone="no"?>
<!DOCTYPE svg PUBLIC "-//W3C//DTD SVG 20010904//EN"
 "http://www.w3.org/TR/2001/REC-SVG-20010904/DTD/svg10.dtd">
<svg version="1.0" xmlns="http://www.w3.org/2000/svg"
 width="1890.000000pt" height="1890.000000pt" viewBox="0 0 1890.000000 1890.000000"
 preserveAspectRatio="xMidYMid meet">
<metadata>
Created by potrace 1.11, written by Peter Selinger 2001-2013
</metadata>
<g transform="translate(0.000000,1890.000000) scale(0.100000,-0.100000)"
fill="#000000" stroke="none">
<path d="M9235 13261 c-53 -24 -97 -62 -120 -104 l-18 -34 -131 -7 c-709 -36
-1417 -152 -2096 -345 -96 -27 -182 -52 -190 -55 -10 -4 -21 4 -31 22 -31 54
-128 79 -187 48 -49 -25 -74 -61 -80 -116 l-7 -52 -195 -73 c-586 -218 -1099
-464 -1634 -781 l-139 -82 -36 23 c-110 73 -260 49 -354 -55 -51 -57 -67 -103
-67 -197 l0 -69 -147 -106 c-684 -489 -1373 -1121 -1859 -1705 -63 -75 -114
-140 -114 -145 0 -20 256 -320 419 -490 87 -92 88 -93 75 -123 -22 -50 -17
-136 9 -186 48 -90 168 -134 261 -95 l40 17 70 -69 c294 -286 818 -711 1204
-977 l101 -70 1 -61 c0 -70 23 -113 79 -151 44 -30 121 -31 176 -3 l38 20 206
-124 c415 -249 877 -485 1272 -649 33 -13 36 -19 42 -65 11 -90 67 -170 146
-208 20 -10 64 -20 99 -22 76 -5 138 16 192 64 l36 33 70 -25 c249 -91 786
-239 1119 -309 630 -133 1334 -205 2005 -205 l175 0 27 -34 c56 -71 168 -96
253 -57 37 16 97 74 106 100 3 6 78 17 189 26 971 81 1915 311 2828 692 l134
55 41 -18 c121 -55 261 8 298 133 l12 43 196 101 c365 189 678 371 991 576
172 114 175 115 211 104 150 -45 288 55 289 209 0 33 8 41 153 152 83 64 212
166 286 226 95 78 145 112 170 117 90 17 176 90 210 179 13 34 53 78 191 208
188 177 340 331 514 523 124 136 306 352 306 363 0 12 -184 230 -345 407 -316
350 -829 830 -1177 1101 -24 19 -28 29 -28 70 0 132 -129 229 -258 195 l-42
-12 -167 119 c-260 185 -533 360 -835 536 -68 39 -102 66 -117 91 -28 48 -76
75 -134 75 -40 0 -79 16 -258 105 -312 157 -650 305 -956 419 -60 23 -73 32
-78 54 -21 92 -146 140 -240 92 l-38 -20 -146 46 c-171 53 -497 141 -661 179
-113 26 -116 28 -135 63 -30 55 -77 82 -142 82 -56 0 -83 -9 -118 -40 -19 -17
-24 -17 -130 1 -401 69 -788 110 -1235 129 -209 9 -246 13 -255 27 -28 45 -75
89 -120 109 -63 30 -161 32 -220 5z m705 -296 c173 -8 443 -32 640 -55 191
-24 544 -79 556 -89 5 -3 21 -24 35 -46 l26 -41 -212 -624 -213 -625 -58 -5
c-45 -5 -66 -2 -89 12 -61 35 -244 112 -367 153 -82 27 -140 53 -164 73 -31
25 -84 123 -309 564 l-273 533 29 32 c15 18 36 55 46 83 l18 51 105 -5 c58 -3
161 -8 230 -11z m-853 -12 c11 -33 33 -78 44 -94 9 -12 -68 -126 -437 -641
l-449 -626 -46 5 c-58 7 -110 -10 -156 -50 l-35 -31 -624 312 c-423 211 -624
317 -624 327 0 29 -28 71 -57 85 -15 8 -30 15 -31 16 -2 2 -19 61 -37 133 -26
103 -30 133 -20 141 18 15 283 94 520 155 510 131 1024 218 1530 259 372 31
414 32 422 9z m251 -193 l73 -5 258 -505 c141 -278 253 -506 249 -508 -4 -2
-65 5 -135 14 -174 25 -528 25 -698 0 -226 -33 -454 -94 -639 -172 -44 -19
-81 -34 -82 -34 -2 0 196 277 438 615 280 391 444 612 452 608 6 -4 44 -10 84
-13z m2412 -70 c85 -23 255 -70 377 -107 l221 -66 17 -44 c12 -30 30 -54 56
-71 l38 -27 1 -188 c0 -148 -3 -187 -12 -181 -11 6 -839 686 -872 716 -18 15
16 9 174 -32z m8 -272 c202 -166 417 -344 479 -395 l112 -93 -16 -37 c-22 -55
-14 -141 19 -191 l26 -39 -230 -474 c-126 -261 -265 -547 -308 -635 l-78 -162
-39 11 c-36 9 -43 17 -81 91 -54 106 -156 259 -247 371 -95 117 -284 300 -405
392 -150 114 -159 36 94 780 118 345 217 636 221 645 4 9 23 21 43 26 20 6 39
10 40 11 2 1 169 -135 370 -301z m-5259 35 c53 -200 55 -213 37 -249 -51 -109
32 -216 142 -183 l40 12 561 -284 560 -284 -83 -3 c-46 -1 -796 11 -1666 28
-1566 30 -1600 31 -1600 60 0 3 51 35 114 72 419 248 888 484 1301 654 165 67
555 213 572 214 7 0 17 -17 22 -37z m6284 -94 c229 -87 503 -207 762 -333
l251 -122 0 -57 c1 -57 15 -88 55 -126 l22 -20 -123 -838 c-68 -467 -128 -841
-134 -845 -6 -4 -16 -8 -21 -8 -6 0 -214 378 -463 841 -436 811 -452 841 -438
867 50 99 11 223 -85 272 l-39 20 0 183 0 182 28 17 c15 9 33 17 40 17 7 1 72
-22 145 -50z m1567 -773 c185 -111 467 -297 640 -421 l116 -83 0 -86 1 -85
-605 -473 c-333 -260 -613 -479 -623 -486 -15 -10 -24 -8 -55 13 -21 14 -48
28 -61 31 -20 5 -22 10 -17 43 3 20 58 396 123 836 l117 799 45 23 c24 13 48
28 53 33 10 10 22 4 266 -144z m-1322 -791 l443 -824 -39 -35 c-21 -19 -47
-51 -57 -70 -13 -23 -25 -34 -35 -31 -8 2 -341 88 -740 190 -398 102 -725 187
-725 188 -1 1 -7 21 -14 45 l-12 43 287 592 c158 326 301 621 319 657 l33 65
48 2 49 3 443 -825z m-3338 785 c126 -15 126 -15 150 -65 20 -42 71 -85 101
-85 47 -1 47 -1 -117 -544 l-159 -526 -45 7 c-25 5 -110 8 -190 8 -171 -1
-257 -20 -397 -91 -48 -24 -90 -40 -94 -36 -4 4 -149 225 -323 491 l-317 484
25 26 c14 14 32 43 41 63 13 32 26 43 83 68 214 98 436 160 687 194 120 17
438 20 555 6z m537 -121 c48 -17 143 -56 209 -86 120 -54 122 -55 128 -92 3
-21 15 -49 26 -63 l20 -26 -341 -470 -341 -470 -54 29 c-30 15 -81 38 -113 49
l-59 22 14 47 c7 25 80 266 162 535 l149 489 35 18 c19 10 40 25 47 33 17 21
15 21 118 -15z m-3867 -89 c872 -17 1593 -31 1604 -33 13 -1 -10 -23 -75 -72
-187 -139 -443 -411 -552 -587 l-42 -68 -50 6 c-60 6 -137 -15 -171 -47 l-24
-22 -1202 418 c-662 230 -1212 422 -1223 426 -31 12 37 11 1735 -21z m-642
-484 c686 -239 1255 -437 1265 -441 12 -5 17 -19 17 -51 0 -59 22 -109 65
-148 l34 -32 -28 -84 c-15 -47 -38 -130 -51 -185 -12 -55 -24 -105 -26 -112
-2 -7 -21 -21 -44 -33 -22 -11 -53 -38 -68 -60 -16 -23 -35 -39 -47 -40 -30 0
-1354 90 -1400 95 l-41 6 -17 68 c-47 183 -210 298 -408 290 l-82 -4 -244 535
c-134 294 -243 538 -243 543 0 7 61 86 68 87 1 0 563 -195 1250 -434z m-1627
337 c39 -21 71 -29 124 -31 l72 -4 247 -543 248 -543 -51 -47 c-31 -29 -64
-74 -84 -114 -28 -58 -33 -78 -37 -170 l-5 -105 -960 -401 -960 -402 -25 23
c-38 35 -97 56 -152 53 l-49 -3 -97 105 c-53 57 -144 158 -201 224 -58 66
-113 129 -123 141 -18 21 -17 22 88 145 323 378 737 781 1184 1154 195 163
700 544 722 545 3 0 30 -12 59 -27z m4500 -518 l320 -489 -43 -35 c-72 -58
-147 -142 -201 -224 -36 -56 -55 -76 -66 -72 -9 3 -278 107 -598 232 l-583
226 0 56 c0 50 6 66 44 129 137 222 316 415 547 592 l98 75 81 0 80 0 321
-490z m2116 448 c17 -3 45 -1 61 5 25 9 34 5 87 -34 255 -191 498 -473 628
-729 25 -50 25 -51 6 -74 -11 -13 -22 -40 -25 -60 l-6 -37 -589 -176 -588
-175 -38 66 c-36 61 -177 216 -249 272 l-32 24 341 468 c260 357 344 466 356
462 9 -4 30 -9 48 -12z m4509 -342 c5 -5 25 -13 44 -18 l34 -9 193 -1030 c106
-566 192 -1033 192 -1039 0 -5 -25 -27 -56 -48 -54 -37 -58 -38 -83 -24 -14 8
-378 209 -810 447 -432 238 -788 435 -792 439 -4 3 2 31 12 61 27 77 26 136
-5 236 -6 18 73 83 616 508 342 267 628 486 634 486 6 0 15 -4 21 -9z m386
-118 c271 -225 417 -360 709 -652 284 -284 562 -593 557 -617 -6 -25 -258
-304 -468 -518 -251 -255 -351 -347 -358 -328 -8 26 -65 83 -107 107 -23 14
-63 28 -88 31 -30 4 -48 12 -51 23 -16 53 -385 2064 -381 2072 13 21 41 3 187
-118z m-7602 -618 c322 -125 588 -230 592 -233 3 -4 -7 -45 -23 -92 -16 -47
-29 -93 -29 -102 0 -17 -37 -18 -639 -18 l-638 0 -7 38 c-3 23 -20 55 -41 79
-19 23 -35 49 -35 58 0 29 39 176 77 287 32 96 40 110 74 132 20 14 45 39 55
55 10 16 20 28 23 27 3 -2 269 -106 591 -231z m3467 62 c15 -55 76 -113 137
-129 l44 -12 21 -95 c33 -149 40 -196 50 -338 37 -532 -149 -1079 -506 -1490
l-55 -63 -59 0 c-40 0 -73 -7 -100 -20 l-40 -21 -412 417 c-227 229 -414 421
-416 426 -2 5 10 24 26 41 75 80 160 242 194 372 42 160 28 404 -33 559 -10
27 -17 51 -14 53 5 5 1125 341 1141 342 6 1 16 -19 22 -42z m1131 -232 l732
-188 0 -41 c0 -60 16 -108 54 -165 l34 -50 -675 -1003 c-372 -552 -679 -1006
-683 -1011 -3 -4 -24 0 -45 9 -54 22 -151 16 -191 -13 l-29 -21 -245 150 -245
149 1 84 0 84 45 53 c262 311 440 671 513 1038 67 336 59 688 -23 1007 -20 77
-15 121 12 110 7 -2 342 -89 745 -192z m-6508 -270 c366 -25 683 -47 705 -50
37 -5 42 -9 57 -52 l16 -46 -371 -477 c-371 -475 -372 -477 -400 -467 -16 5
-52 7 -80 4 l-52 -6 -335 460 c-184 254 -339 467 -344 476 -5 10 0 23 17 41
26 27 77 126 77 150 0 6 10 12 22 12 12 0 322 -20 688 -45z m2432 -140 c-5
-112 10 -228 43 -328 13 -40 22 -73 22 -74 -1 -1 -238 -152 -526 -336 l-524
-335 -42 30 c-23 16 -60 32 -82 35 -41 5 -42 7 -82 94 -58 125 -116 303 -145
449 -29 143 -51 383 -35 388 43 15 109 107 109 152 0 20 3 20 633 20 l633 0
-4 -95z m-3812 5 c114 -118 264 -155 423 -103 27 8 52 11 57 7 4 -5 155 -211
335 -459 180 -247 333 -456 338 -463 8 -9 5 -22 -7 -43 -9 -16 -20 -57 -24
-90 l-7 -62 -762 -393 -762 -394 -33 20 c-22 13 -51 20 -87 20 -50 0 -60 5
-165 76 -361 248 -798 599 -1153 928 l-142 131 6 40 c3 22 9 41 12 43 11 5
1906 800 1910 801 2 1 29 -26 61 -59z m9979 -523 l824 -454 -2 -76 c-3 -92 20
-151 79 -212 l40 -41 -158 -125 c-86 -69 -192 -152 -235 -184 l-78 -58 -41 19
c-91 41 -213 12 -263 -62 l-21 -31 -496 130 -496 130 -5 45 c-7 60 -51 121
-111 152 l-48 25 6 385 c3 212 9 469 12 572 l7 186 31 6 c17 4 49 17 71 30 22
13 45 23 50 21 6 -1 381 -207 834 -458z m-7704 113 c30 -192 95 -413 172 -581
l34 -76 -25 -48 c-29 -54 -35 -138 -12 -190 12 -30 8 -37 -482 -771 -401 -603
-497 -741 -512 -737 -25 7 -27 41 -40 718 -14 788 -16 720 20 735 43 18 97 82
111 132 13 51 6 131 -16 165 -16 24 -12 30 352 496 l368 473 7 -106 c4 -58 15
-152 23 -210z m6591 -129 c-3 -229 -9 -487 -13 -573 l-6 -157 -27 -6 c-72 -16
-140 -113 -140 -202 l0 -50 -492 -228 c-271 -126 -544 -253 -606 -282 l-112
-52 48 72 c121 179 1238 1837 1264 1874 27 40 29 41 60 31 l31 -11 -7 -416z
m-4896 -32 c113 -164 276 -287 470 -355 36 -13 65 -27 65 -31 0 -4 -54 -256
-120 -559 l-120 -552 -52 -4 c-36 -3 -68 -15 -104 -37 l-51 -31 -105 36 c-408
139 -779 394 -1039 714 -54 66 -60 78 -52 100 8 22 6 106 -4 164 -2 14 104 86
517 351 l520 332 26 -47 c14 -26 36 -63 49 -81z m2229 -1028 c-13 -26 -23 -64
-24 -95 l-1 -51 -129 -87 c-277 -187 -581 -307 -930 -369 -135 -23 -436 -36
-577 -25 l-86 8 -31 49 c-21 34 -44 55 -76 71 -25 12 -44 27 -42 33 2 5 57
255 122 555 65 300 119 546 120 548 2 2 46 -1 99 -7 241 -25 485 46 671 194
l69 56 419 -419 418 -419 -22 -42z m-4943 233 c13 -3 24 -7 24 -8 1 -8 30
-1309 30 -1362 l0 -71 -42 -19 c-24 -10 -57 -32 -75 -48 l-33 -28 -64 26
c-126 50 -464 209 -645 303 -313 162 -803 449 -798 466 1 4 344 184 762 400
l760 393 28 -23 c16 -13 39 -26 53 -29z m1398 -64 c51 0 53 -1 91 -52 65 -86
263 -285 368 -369 237 -191 520 -348 774 -430 40 -12 72 -24 70 -25 -4 -4
-2333 -634 -2343 -634 -5 0 -18 13 -27 30 l-18 29 488 731 c482 724 488 732
516 726 16 -3 53 -6 81 -6z m6960 -305 c264 -69 481 -126 482 -128 1 -1 5 -13
9 -27 6 -24 -5 -33 -150 -128 -327 -215 -680 -419 -993 -576 l-170 -85 -18 21
c-54 60 -167 75 -251 33 l-51 -26 -498 206 c-274 113 -502 209 -507 214 -6 6
1236 591 1257 591 4 0 24 -13 44 -30 91 -72 233 -57 308 34 16 19 36 33 44 31
8 -2 231 -61 494 -130z m-2842 -290 l247 -150 3 -60 3 -60 -869 -601 -869
-602 -41 22 c-30 15 -59 21 -104 21 l-63 0 -335 504 c-317 476 -335 505 -323
528 9 17 19 23 34 19 11 -3 85 -8 165 -12 326 -15 686 42 1004 158 201 73 483
226 628 340 30 24 41 27 57 19 33 -18 132 -13 171 8 19 10 38 18 41 17 3 0
116 -68 251 -151z m1141 -522 c276 -114 502 -207 503 -207 0 -1 -2 -24 -4 -53
l-4 -51 -176 -73 c-721 -294 -1503 -504 -2252 -603 -200 -27 -612 -68 -618
-62 -1 2 387 274 864 604 l867 600 35 -21 c71 -42 202 -17 249 48 10 13 22 25
26 25 5 0 234 -93 510 -207z m-3832 93 c55 -50 124 -72 187 -61 l38 6 337
-506 338 -506 -23 -51 -23 -50 -310 6 c-347 6 -537 17 -829 46 -635 64 -1220
184 -1841 376 -259 81 -317 103 -313 123 3 12 277 90 1188 338 652 177 1189
322 1194 322 4 1 30 -19 57 -43z"/>
</g>
</svg>
