<svg xmlns="http://www.w3.org/2000/svg" viewBox="0 0 980.26 183.7"><defs><style>.cls-1{fill:#fff;}</style></defs><g id="Layer_2" data-name="Layer 2"><g id="Warstwa_1" data-name="Warstwa 1"><path class="cls-1" d="M182.78,181c-1.67,0-3.34,0-5,0C133.07,180,91,166.3,52.65,140.32A243.66,243.66,0,0,1,.84,93.48l-.84-1,.84-1.05C12.46,76.82,75.78,4.18,181.78,3.72,289,3.24,353,76.66,364.73,91.38l.84,1.05-.85,1c-5,6.2-23.67,28-54.27,48.22C271,167.78,228,181,182.78,181ZM4.31,92.42a241.54,241.54,0,0,0,50.22,45.13c37.79,25.61,79.27,39.08,123.3,40,46.41,1,90.41-12,130.78-38.67C337.27,120,355.3,99.66,361.26,92.42,347.75,75.84,285.47,7.07,182.79,7.07h-1C79.66,7.52,17.73,76,4.31,92.42Z"/><path class="cls-1" d="M182.44,148.59c-32.69,0-59.29-25.23-59.29-56.24s26.6-56.24,59.29-56.24,59.29,25.23,59.29,56.24S215.14,148.59,182.44,148.59Zm0-108.29c-30.38,0-55.1,23.35-55.1,52.05s24.72,52.05,55.1,52.05,55.1-23.35,55.1-52.05S212.82,40.3,182.44,40.3Z"/><circle class="cls-1" cx="57.41" cy="43.45" r="6.46"/><path class="cls-1" d="M57.41,50A6.57,6.57,0,1,1,64,43.45,6.57,6.57,0,0,1,57.41,50Zm0-12.93a6.36,6.36,0,1,0,6.35,6.36A6.37,6.37,0,0,0,57.41,37.09Z"/><circle class="cls-1" cx="75.97" cy="84.27" r="9.21"/><path class="cls-1" d="M76,93.59a9.32,9.32,0,1,1,9.32-9.32A9.33,9.33,0,0,1,76,93.59Zm0-18.43a9.11,9.11,0,1,0,9.11,9.11A9.12,9.12,0,0,0,76,75.16Z"/><circle class="cls-1" cx="102.03" cy="164.31" r="6.12" transform="translate(-29.23 22.26) rotate(-10.9)"/><path class="cls-1" d="M102,170.53a6.23,6.23,0,1,1,6.23-6.22A6.23,6.23,0,0,1,102,170.53Zm0-12.24a6,6,0,1,0,6,6A6,6,0,0,0,102,158.29Z"/><circle class="cls-1" cx="16.42" cy="109.16" r="4.81"/><path class="cls-1" d="M16.42,114.08a4.92,4.92,0,1,1,4.92-4.92A4.92,4.92,0,0,1,16.42,114.08Zm0-9.63a4.71,4.71,0,1,0,4.71,4.71A4.72,4.72,0,0,0,16.42,104.45Z"/><circle class="cls-1" cx="180.21" cy="6.18" r="6.07" transform="translate(1.34 28.95) rotate(-9.22)"/><path class="cls-1" d="M180.21,12.36a6.18,6.18,0,1,1,6.18-6.18A6.19,6.19,0,0,1,180.21,12.36Zm0-12.15a6,6,0,1,0,6,6A6,6,0,0,0,180.21.21Z"/><circle class="cls-1" cx="152.25" cy="45.23" r="4.69"/><path class="cls-1" d="M152.25,50A4.8,4.8,0,1,1,157,45.23,4.8,4.8,0,0,1,152.25,50Zm0-9.38a4.59,4.59,0,1,0,4.58,4.59A4.6,4.6,0,0,0,152.25,40.64Z"/><circle class="cls-1" cx="235.9" cy="73.75" r="4.74"/><path class="cls-1" d="M235.9,78.6a4.85,4.85,0,1,1,4.85-4.85A4.86,4.86,0,0,1,235.9,78.6Zm0-9.49a4.64,4.64,0,1,0,4.64,4.64A4.65,4.65,0,0,0,235.9,69.11Z"/><circle class="cls-1" cx="283.56" cy="85.99" r="7.49"/><path class="cls-1" d="M283.56,93.59a7.6,7.6,0,1,1,7.6-7.6A7.61,7.61,0,0,1,283.56,93.59Zm0-15A7.39,7.39,0,1,0,291,86,7.4,7.4,0,0,0,283.56,78.6Z"/><circle class="cls-1" cx="242.37" cy="144.23" r="4.68"/><path class="cls-1" d="M242.37,149a4.78,4.78,0,1,1,4.78-4.78A4.79,4.79,0,0,1,242.37,149Zm0-9.35a4.57,4.57,0,1,0,4.57,4.57A4.58,4.58,0,0,0,242.37,139.66Z"/><circle class="cls-1" cx="170.7" cy="145.71" r="5.17"/><path class="cls-1" d="M170.7,151a5.27,5.27,0,1,1,5.27-5.27A5.27,5.27,0,0,1,170.7,151Zm0-10.33a5.06,5.06,0,1,0,5.06,5.06A5.07,5.07,0,0,0,170.7,140.65Z"/><circle class="cls-1" cx="192.59" cy="178.67" r="4.92"/><path class="cls-1" d="M192.59,183.7a5,5,0,1,1,5-5A5,5,0,0,1,192.59,183.7Zm0-9.84a4.82,4.82,0,1,0,4.81,4.81A4.82,4.82,0,0,0,192.59,173.86Z"/><circle class="cls-1" cx="335.01" cy="116.19" r="6.64"/><path class="cls-1" d="M335,122.94a6.75,6.75,0,1,1,6.74-6.75A6.76,6.76,0,0,1,335,122.94Zm0-13.28a6.54,6.54,0,1,0,6.53,6.53A6.54,6.54,0,0,0,335,109.66Z"/><circle class="cls-1" cx="323.54" cy="54.74" r="4.82"/><path class="cls-1" d="M323.54,59.67a4.93,4.93,0,1,1,4.93-4.93A4.93,4.93,0,0,1,323.54,59.67Zm0-9.65a4.72,4.72,0,1,0,4.72,4.72A4.73,4.73,0,0,0,323.54,50Z"/><path class="cls-1" d="M256.42,38.31a3.17,3.17,0,1,1,3.18-3.17A3.18,3.18,0,0,1,256.42,38.31Zm0-6.13a3,3,0,1,0,3,3A3,3,0,0,0,256.42,32.18Z"/><circle class="cls-1" cx="115.35" cy="27.4" r="2.71"/><path class="cls-1" d="M115.35,30.21a2.81,2.81,0,1,1,2.81-2.81A2.81,2.81,0,0,1,115.35,30.21Zm0-5.41a2.6,2.6,0,1,0,2.6,2.6A2.6,2.6,0,0,0,115.35,24.8Z"/><polygon class="cls-1" points="16.91 110.32 15.94 108 74.29 83.61 55.44 42.16 145.27 43.86 114.27 28.26 111.43 16.91 113.87 16.3 116.43 26.53 156.27 46.59 59.38 44.75 77.65 84.93 16.91 110.32"/><circle class="cls-1" cx="101.09" cy="118.65" r="4.92"/><path class="cls-1" d="M101.09,123.68a5,5,0,1,1,5-5A5,5,0,0,1,101.09,123.68Zm0-9.84a4.82,4.82,0,1,0,4.81,4.81A4.82,4.82,0,0,0,101.09,113.84Z"/><circle class="cls-1" cx="56.32" cy="141.78" r="3.94"/><path class="cls-1" d="M56.32,145.82a4,4,0,1,1,4-4A4,4,0,0,1,56.32,145.82Zm0-7.87a3.83,3.83,0,1,0,3.83,3.83A3.83,3.83,0,0,0,56.32,138Z"/><circle class="cls-1" cx="282.76" cy="126.38" r="5.26" transform="translate(-16.59 46.93) rotate(-9.22)"/><path class="cls-1" d="M282.76,131.75a5.37,5.37,0,1,1,5.37-5.37A5.38,5.38,0,0,1,282.76,131.75Zm0-10.53a5.16,5.16,0,1,0,5.16,5.16A5.17,5.17,0,0,0,282.76,121.22Z"/><polygon class="cls-1" points="238.83 74.3 236.57 73.2 255.17 34.85 255.17 17.82 257.68 17.82 257.68 35.43 238.83 74.3"/><polygon class="cls-1" points="153.27 45.96 151.22 44.49 180.39 3.77 198.63 39.54 196.39 40.68 180.03 8.59 153.27 45.96"/><polygon class="cls-1" points="336.73 118.58 284.85 89.95 286.06 87.75 333.28 113.81 322.69 57.01 283.85 87.36 235.59 74.97 236.22 72.53 283.27 84.62 324.4 52.47 336.73 118.58"/><path class="cls-1" d="M192.25,180.43l-22.1-33.27-69.34,18.78-.94-45.24-43,22.19-1.16-2.23,43.47-22.45L73.36,82.83l54.33,3.73-25,32.12.31.42-.61.31.9,43.26,68-18.41,21.69,32.65,47.14-32.62-18.94-11.57,1.31-2.15,22.24,13.59ZM78.58,85.71l22.54,30.86L122.8,88.75Z"/><rect class="cls-1" x="89.81" y="140.22" width="54.85" height="2.52" transform="translate(-65.51 160.58) rotate(-56.32)"/><polygon class="cls-1" points="277.33 159.23 242.4 144.8 284.9 81.75 284.04 125.41 319.04 134.59 318.4 137.03 281.49 127.34 282.22 90.23 246.21 143.65 278.29 156.91 277.33 159.23"/><rect class="cls-1" x="92.86" y="17.36" width="2.51" height="77.74" transform="translate(10.08 126.63) rotate(-70.81)"/><rect class="cls-1" x="242.33" y="134.05" width="42.4" height="2.51" transform="translate(-32.47 123.6) rotate(-24.91)"/><polygon class="cls-1" points="284.25 88.21 255.43 34.64 227.94 11.97 215.69 47.91 213.31 47.1 226.74 7.71 257.42 33.01 282.87 80.33 289.81 32.98 292.3 33.34 284.25 88.21"/><circle class="cls-1" cx="256.43" cy="35.14" r="4.55"/><path class="cls-1" d="M256.42,39.8a4.66,4.66,0,1,1,4.66-4.66A4.66,4.66,0,0,1,256.42,39.8Zm0-9.11a4.45,4.45,0,1,0,4.45,4.45A4.45,4.45,0,0,0,256.42,30.69Z"/><path class="cls-1" d="M132.83,125a5,5,0,1,1,5-5A5,5,0,0,1,132.83,125Zm0-7.52a2.51,2.51,0,1,0,2.5,2.5A2.5,2.5,0,0,0,132.83,117.45Z"/><circle class="cls-1" cx="129.07" cy="69" r="3.76"/><path class="cls-1" d="M129.07,74a5,5,0,1,1,5-5A5,5,0,0,1,129.07,74Zm0-7.52a2.51,2.51,0,1,0,2.51,2.5A2.5,2.5,0,0,0,129.07,66.5Z"/><circle class="cls-1" cx="125.25" cy="88.03" r="3.76"/><path class="cls-1" d="M125.25,93a5,5,0,1,1,5-5A5,5,0,0,1,125.25,93Zm0-7.51a2.5,2.5,0,1,0,2.5,2.5A2.5,2.5,0,0,0,125.25,85.53Z"/><circle class="cls-1" cx="222.36" cy="131.47" r="3.76"/><path class="cls-1" d="M222.36,136.49a5,5,0,1,1,5-5A5,5,0,0,1,222.36,136.49Zm0-7.52a2.5,2.5,0,1,0,2.51,2.5A2.5,2.5,0,0,0,222.36,129Z"/><circle class="cls-1" cx="213.41" cy="47.05" r="3.76"/><path class="cls-1" d="M213.41,50.92a3.87,3.87,0,1,1,3.86-3.87A3.86,3.86,0,0,1,213.41,50.92Zm0-7.52a3.66,3.66,0,1,0,3.65,3.65A3.65,3.65,0,0,0,213.41,43.4Z"/><circle class="cls-1" cx="195.7" cy="40.54" r="3.76"/><path class="cls-1" d="M195.7,44.4a3.87,3.87,0,1,1,3.86-3.86A3.87,3.87,0,0,1,195.7,44.4Zm0-7.52a3.66,3.66,0,1,0,3.65,3.66A3.66,3.66,0,0,0,195.7,36.88Z"/><circle class="cls-1" cx="276.07" cy="158.17" r="3.76"/><path class="cls-1" d="M276.07,163.19a5,5,0,1,1,5-5A5,5,0,0,1,276.07,163.19Zm0-7.52a2.5,2.5,0,1,0,2.5,2.5A2.51,2.51,0,0,0,276.07,155.67Z"/><circle class="cls-1" cx="316.62" cy="135" r="3.76"/><path class="cls-1" d="M316.62,140a5,5,0,1,1,5-5A5,5,0,0,1,316.62,140Zm0-7.51a2.5,2.5,0,1,0,2.5,2.5A2.5,2.5,0,0,0,316.62,132.5Z"/><circle class="cls-1" cx="256.43" cy="17.82" r="3.76"/><path class="cls-1" d="M256.42,21.68a3.86,3.86,0,1,1,3.87-3.86A3.86,3.86,0,0,1,256.42,21.68Zm0-7.51a3.65,3.65,0,1,0,3.66,3.65A3.66,3.66,0,0,0,256.42,14.17Z"/><circle class="cls-1" cx="227.4" cy="9.84" r="3.76"/><path class="cls-1" d="M227.4,13.7a3.86,3.86,0,1,1,3.86-3.86A3.86,3.86,0,0,1,227.4,13.7Zm0-7.51a3.66,3.66,0,1,0,3.65,3.65A3.66,3.66,0,0,0,227.4,6.19Z"/><circle class="cls-1" cx="291.06" cy="34.34" r="3.76"/><path class="cls-1" d="M291.06,38.21a3.87,3.87,0,1,1,3.86-3.87A3.88,3.88,0,0,1,291.06,38.21Zm0-7.52a3.66,3.66,0,1,0,3.65,3.65A3.66,3.66,0,0,0,291.06,30.69Z"/><circle class="cls-1" cx="132.44" cy="119.95" r="3.76"/><path class="cls-1" d="M132.44,125a5,5,0,1,1,5-5A5,5,0,0,1,132.44,125Zm0-7.52a2.51,2.51,0,1,0,2.5,2.5A2.5,2.5,0,0,0,132.44,117.45Z"/><path class="cls-1" d="M112.65,18.5A3.46,3.46,0,1,1,116.11,15,3.46,3.46,0,0,1,112.65,18.5Zm0-4.19a.74.74,0,0,0,0,1.47.74.74,0,0,0,0-1.47Z"/><circle class="cls-1" cx="182.78" cy="91.79" r="20.08"/><path class="cls-1" d="M182.78,114A22.18,22.18,0,1,1,205,91.79,22.19,22.19,0,0,1,182.78,114Zm0-40.16a18,18,0,1,0,18,18A18,18,0,0,0,182.78,73.8Z"/><polygon class="cls-1" points="132.61 120.22 132.27 119.69 181.37 88.34 129.01 88.34 129.01 87.71 183.52 87.71 132.61 120.22"/><rect class="cls-1" x="158.06" y="48.96" width="0.63" height="62.87" transform="translate(26.05 198.87) rotate(-68.75)"/><polygon class="cls-1" points="171 145.78 170.39 145.64 182.11 91.85 150.51 43.62 151.03 43.28 182.78 91.72 182.75 91.85 171 145.78"/><polygon class="cls-1" points="181.6 91.45 197.21 40.02 197.81 40.2 183.29 88.06 213.16 46.87 213.66 47.24 181.6 91.45"/><polygon class="cls-1" points="222.14 131.69 179.62 88.73 231.07 73.45 231.25 74.05 180.81 89.04 222.59 131.25 222.14 131.69"/><path class="cls-1" d="M396.25,45.79h43.49q15.11,0,26.8,6a43.59,43.59,0,0,1,18.13,17.08q6.43,11.06,6.44,25.9t-6.44,25.9a43.59,43.59,0,0,1-18.13,17.08q-11.7,6-26.8,6H396.25Zm42.44,75.88q11.82,0,19-7.14t7.16-19.74q0-12.6-7.16-19.74t-19-7.14H422.26v53.76Z"/><path class="cls-1" d="M576,112.57H524.22a15.39,15.39,0,0,0,6.11,9,19.44,19.44,0,0,0,11.36,3.15,23.18,23.18,0,0,0,8.87-1.54,26.21,26.21,0,0,0,7.56-5l13.13,14.56Q560.87,145,540.9,145.05A46,46,0,0,1,519,140a36.28,36.28,0,0,1-14.65-14,39.75,39.75,0,0,1-5.19-20.3,39.92,39.92,0,0,1,5.06-20.09,36.36,36.36,0,0,1,14-13.93,42.37,42.37,0,0,1,39.42-.35,34.42,34.42,0,0,1,13.73,13.58q5.05,8.89,5.06,21.07Q576.38,106.28,576,112.57ZM528.75,89.05a16.12,16.12,0,0,0-4.93,9.52H553a16.06,16.06,0,0,0-4.93-9.52,15.07,15.07,0,0,0-19.31,0Z"/><path class="cls-1" d="M660.33,112.57H608.57a15.43,15.43,0,0,0,6.11,9A19.44,19.44,0,0,0,626,124.75a23.18,23.18,0,0,0,8.87-1.54,26.21,26.21,0,0,0,7.56-5l13.13,14.56Q645.22,145,625.25,145.05a46,46,0,0,1-21.94-5,36.28,36.28,0,0,1-14.65-14,39.75,39.75,0,0,1-5.19-20.3,39.92,39.92,0,0,1,5.06-20.09,36.36,36.36,0,0,1,14-13.93,42.37,42.37,0,0,1,39.42-.35,34.42,34.42,0,0,1,13.73,13.58q5.05,8.89,5.06,21.07Q660.73,106.28,660.33,112.57ZM613.1,89.05a16.12,16.12,0,0,0-4.93,9.52h29.17a16.06,16.06,0,0,0-4.93-9.52,15.07,15.07,0,0,0-19.31,0Z"/><path class="cls-1" d="M734.77,71.48A34.29,34.29,0,0,1,747.38,85.2,43.79,43.79,0,0,1,752,105.85a43.82,43.82,0,0,1-4.66,20.65,34.29,34.29,0,0,1-12.61,13.72,33.43,33.43,0,0,1-17.68,4.83q-12.48,0-19.84-8V171h-25v-103h23.78v7.56q7-8.82,21-8.82A33.43,33.43,0,0,1,734.77,71.48Zm-12.16,47.6q4.2-4.83,4.21-13.23t-4.21-13.23a14.43,14.43,0,0,0-21.55,0q-4.2,4.83-4.2,13.23t4.2,13.23a14.43,14.43,0,0,0,21.55,0Z"/><path class="cls-1" d="M775.43,142.81q-10.51-2.94-17.08-7.84l8.54-20.44a53.64,53.64,0,0,0,14.32,7,51.52,51.52,0,0,0,16,2.66q15,0,15-8c0-2.8-1.43-4.88-4.27-6.23a74.4,74.4,0,0,0-13.73-4.27,125.7,125.7,0,0,1-17.35-5.11,29.25,29.25,0,0,1-12-8.75q-5-6-5-16.24a29.49,29.49,0,0,1,4.59-16.17A31.16,31.16,0,0,1,778.25,48q9.13-4.2,22.4-4.2A74.2,74.2,0,0,1,818.52,46,52.9,52.9,0,0,1,834,52.37L826,73q-13.14-7.56-25.49-7.56-7.74,0-11.3,2.45a7.44,7.44,0,0,0-3.54,6.37q0,3.92,4.2,5.88a72.07,72.07,0,0,0,13.53,4.06,121.13,121.13,0,0,1,17.41,5.11,30,30,0,0,1,12,8.68q5.06,6,5.06,16.17a28.9,28.9,0,0,1-4.6,16q-4.61,7.14-13.8,11.41t-22.33,4.27A80.1,80.1,0,0,1,775.43,142.81Z"/><path class="cls-1" d="M906,75.26q9.32,8.61,9.33,26.39v42.14H892.1V134q-5.39,11.06-21,11.06A31.18,31.18,0,0,1,856.76,142a21.68,21.68,0,0,1-9.14-8.33,23.24,23.24,0,0,1-3.08-12q0-10.78,7.75-16.73t23.91-6h14.19q-.66-12-15.11-12A32.64,32.64,0,0,0,864.9,88.7,27.18,27.18,0,0,0,856,93.53l-8.41-18.06A45.12,45.12,0,0,1,862,69a64.43,64.43,0,0,1,17-2.31Q896.69,66.65,906,75.26ZM885.66,126a12.38,12.38,0,0,0,4.73-6.58v-6.58H879.62q-10.9,0-10.91,7.7a6.94,6.94,0,0,0,2.5,5.6,10.27,10.27,0,0,0,6.83,2.1A13.22,13.22,0,0,0,885.66,126Z"/><path class="cls-1" d="M980.26,140.71a24.37,24.37,0,0,1-7.69,3.22,40.46,40.46,0,0,1-9.65,1.12q-13.93,0-21.42-7.28T934,116.07V90.59H923.63V70.71H934V51h25V70.71h16.3V90.59H959v25.2a9.28,9.28,0,0,0,2,6.37,6.9,6.9,0,0,0,5.45,2.31,12.62,12.62,0,0,0,7.62-2.38Z"/></g></g></svg>