<svg xmlns="http://www.w3.org/2000/svg" viewBox="0 0 980.26 183.7"><defs><style>.cls-1{fill:#420cbd}</style></defs><g id="Layer_2" data-name="Layer 2"><g id="Warstwa_1" data-name="Warstwa 1"><path class="cls-1" d="M182.78 181h-5c-44.71-1-86.78-14.7-125.13-40.68A243.66 243.66 0 01.84 93.48l-.84-1 .84-1.05C12.46 76.82 75.78 4.18 181.78 3.72 289 3.24 353 76.66 364.73 91.38l.84 1.05-.85 1c-5 6.2-23.67 28-54.27 48.22C271 167.78 228 181 182.78 181zM4.31 92.42a241.54 241.54 0 0050.22 45.13c37.79 25.61 79.27 39.08 123.3 40 46.41 1 90.41-12 130.78-38.67 28.66-18.88 46.69-39.22 52.65-46.46-13.51-16.58-75.79-85.35-178.47-85.35h-1C79.66 7.52 17.73 76 4.31 92.42z"/><path class="cls-1" d="M182.44 148.59c-32.69 0-59.29-25.23-59.29-56.24s26.6-56.24 59.29-56.24 59.29 25.23 59.29 56.24-26.59 56.24-59.29 56.24zm0-108.29c-30.38 0-55.1 23.35-55.1 52.05s24.72 52.05 55.1 52.05 55.1-23.35 55.1-52.05-24.72-52.05-55.1-52.05z"/><circle class="cls-1" cx="57.41" cy="43.45" r="6.46"/><path class="cls-1" d="M57.41 50A6.57 6.57 0 1164 43.45 6.57 6.57 0 0157.41 50zm0-12.93a6.36 6.36 0 106.35 6.36 6.37 6.37 0 00-6.35-6.34z"/><circle class="cls-1" cx="75.97" cy="84.27" r="9.21"/><path class="cls-1" d="M76 93.59a9.32 9.32 0 119.32-9.32A9.33 9.33 0 0176 93.59zm0-18.43a9.11 9.11 0 109.11 9.11A9.12 9.12 0 0076 75.16z"/><circle class="cls-1" cx="102.03" cy="164.31" r="6.12" transform="rotate(-10.9 102.041 164.314)"/><path class="cls-1" d="M102 170.53a6.23 6.23 0 116.23-6.22 6.23 6.23 0 01-6.23 6.22zm0-12.24a6 6 0 106 6 6 6 0 00-6-6z"/><circle class="cls-1" cx="16.42" cy="109.16" r="4.81"/><path class="cls-1" d="M16.42 114.08a4.92 4.92 0 114.92-4.92 4.92 4.92 0 01-4.92 4.92zm0-9.63a4.71 4.71 0 104.71 4.71 4.72 4.72 0 00-4.71-4.71z"/><circle class="cls-1" cx="180.21" cy="6.18" r="6.07" transform="rotate(-9.22 180.185 6.166)"/><path class="cls-1" d="M180.21 12.36a6.18 6.18 0 116.18-6.18 6.19 6.19 0 01-6.18 6.18zm0-12.15a6 6 0 106 6 6 6 0 00-6-6z"/><circle class="cls-1" cx="152.25" cy="45.23" r="4.69"/><path class="cls-1" d="M152.25 50a4.8 4.8 0 114.75-4.77 4.8 4.8 0 01-4.75 4.77zm0-9.38a4.59 4.59 0 104.58 4.59 4.6 4.6 0 00-4.58-4.57z"/><circle class="cls-1" cx="235.9" cy="73.75" r="4.74"/><path class="cls-1" d="M235.9 78.6a4.85 4.85 0 114.85-4.85 4.86 4.86 0 01-4.85 4.85zm0-9.49a4.64 4.64 0 104.64 4.64 4.65 4.65 0 00-4.64-4.64z"/><circle class="cls-1" cx="283.56" cy="85.99" r="7.49"/><path class="cls-1" d="M283.56 93.59a7.6 7.6 0 117.6-7.6 7.61 7.61 0 01-7.6 7.6zm0-15A7.39 7.39 0 10291 86a7.4 7.4 0 00-7.44-7.4z"/><circle class="cls-1" cx="242.37" cy="144.23" r="4.68"/><path class="cls-1" d="M242.37 149a4.78 4.78 0 114.78-4.78 4.79 4.79 0 01-4.78 4.78zm0-9.35a4.57 4.57 0 104.57 4.57 4.58 4.58 0 00-4.57-4.56z"/><circle class="cls-1" cx="170.7" cy="145.71" r="5.17"/><path class="cls-1" d="M170.7 151a5.27 5.27 0 115.27-5.27 5.27 5.27 0 01-5.27 5.27zm0-10.33a5.06 5.06 0 105.06 5.06 5.07 5.07 0 00-5.06-5.08z"/><circle class="cls-1" cx="192.59" cy="178.67" r="4.92"/><path class="cls-1" d="M192.59 183.7a5 5 0 115-5 5 5 0 01-5 5zm0-9.84a4.82 4.82 0 104.81 4.81 4.82 4.82 0 00-4.81-4.81z"/><circle class="cls-1" cx="335.01" cy="116.19" r="6.64"/><path class="cls-1" d="M335 122.94a6.75 6.75 0 116.74-6.75 6.76 6.76 0 01-6.74 6.75zm0-13.28a6.54 6.54 0 106.53 6.53 6.54 6.54 0 00-6.53-6.53z"/><circle class="cls-1" cx="323.54" cy="54.74" r="4.82"/><path class="cls-1" d="M323.54 59.67a4.93 4.93 0 114.93-4.93 4.93 4.93 0 01-4.93 4.93zm0-9.65a4.72 4.72 0 104.72 4.72 4.73 4.73 0 00-4.72-4.74zm-67.12-11.71a3.17 3.17 0 113.18-3.17 3.18 3.18 0 01-3.18 3.17zm0-6.13a3 3 0 103 3 3 3 0 00-3-3z"/><circle class="cls-1" cx="115.35" cy="27.4" r="2.71"/><path class="cls-1" d="M115.35 30.21a2.81 2.81 0 112.81-2.81 2.81 2.81 0 01-2.81 2.81zm0-5.41a2.6 2.6 0 102.6 2.6 2.6 2.6 0 00-2.6-2.6z"/><path class="cls-1" d="M16.91 110.32l-.97-2.32 58.35-24.39-18.85-41.45 89.83 1.7-31-15.6-2.84-11.35 2.44-.61 2.56 10.23 39.84 20.06-96.89-1.84 18.27 40.18-60.74 25.39z"/><circle class="cls-1" cx="101.09" cy="118.65" r="4.92"/><path class="cls-1" d="M101.09 123.68a5 5 0 115-5 5 5 0 01-5 5zm0-9.84a4.82 4.82 0 104.81 4.81 4.82 4.82 0 00-4.81-4.81z"/><circle class="cls-1" cx="56.32" cy="141.78" r="3.94"/><path class="cls-1" d="M56.32 145.82a4 4 0 114-4 4 4 0 01-4 4zm0-7.87a3.83 3.83 0 103.83 3.83 3.83 3.83 0 00-3.83-3.78z"/><circle class="cls-1" cx="282.76" cy="126.38" r="5.26" transform="rotate(-9.22 282.712 126.338)"/><path class="cls-1" d="M282.76 131.75a5.37 5.37 0 115.37-5.37 5.38 5.38 0 01-5.37 5.37zm0-10.53a5.16 5.16 0 105.16 5.16 5.17 5.17 0 00-5.16-5.16zM238.83 74.3l-2.26-1.1 18.6-38.35V17.82h2.51v17.61L238.83 74.3zm-85.56-28.34l-2.05-1.47 29.17-40.72 18.24 35.77-2.24 1.14-16.36-32.09-26.76 37.37z"/><path class="cls-1" d="M336.73 118.58l-51.88-28.63 1.21-2.2 47.22 26.06-10.59-56.8-38.84 30.35-48.26-12.39.63-2.44 47.05 12.09 41.13-32.15 12.33 66.11zm-144.48 61.85l-22.1-33.27-69.34 18.78-.94-45.24-43 22.19-1.16-2.23 43.47-22.45-25.82-35.38 54.33 3.73-25 32.12.31.42-.61.31.9 43.26 68-18.41 21.69 32.65 47.14-32.62-18.94-11.57 1.31-2.15 22.24 13.59zM78.58 85.71l22.54 30.86 21.68-27.82z"/><path class="cls-1" transform="rotate(-56.32 117.237 141.48)" d="M89.81 140.22h54.85v2.52H89.81z"/><path class="cls-1" d="M277.33 159.23L242.4 144.8l42.5-63.05-.86 43.66 35 9.18-.64 2.44-36.91-9.69.73-37.11-36.01 53.42 32.08 13.26-.96 2.32z"/><path class="cls-1" transform="rotate(-70.81 94.116 56.224)" d="M92.86 17.36h2.51V95.1h-2.51z"/><path class="cls-1" transform="rotate(-24.91 263.567 135.305)" d="M242.33 134.05h42.4v2.51h-42.4z"/><path class="cls-1" d="M284.25 88.21l-28.82-53.57-27.49-22.67-12.25 35.94-2.38-.81 13.43-39.39 30.68 25.3 25.45 47.32 6.94-47.35 2.49.36-8.05 54.87z"/><circle class="cls-1" cx="256.43" cy="35.14" r="4.55"/><path class="cls-1" d="M256.42 39.8a4.66 4.66 0 114.66-4.66 4.66 4.66 0 01-4.66 4.66zm0-9.11a4.45 4.45 0 104.45 4.45 4.45 4.45 0 00-4.45-4.45zM132.83 125a5 5 0 115-5 5 5 0 01-5 5zm0-7.52a2.51 2.51 0 102.5 2.5 2.5 2.5 0 00-2.5-2.53z"/><circle class="cls-1" cx="129.07" cy="69" r="3.76"/><path class="cls-1" d="M129.07 74a5 5 0 115-5 5 5 0 01-5 5zm0-7.52a2.51 2.51 0 102.51 2.5 2.5 2.5 0 00-2.51-2.48z"/><circle class="cls-1" cx="125.25" cy="88.03" r="3.76"/><path class="cls-1" d="M125.25 93a5 5 0 115-5 5 5 0 01-5 5zm0-7.51a2.5 2.5 0 102.5 2.5 2.5 2.5 0 00-2.5-2.46z"/><circle class="cls-1" cx="222.36" cy="131.47" r="3.76"/><path class="cls-1" d="M222.36 136.49a5 5 0 115-5 5 5 0 01-5 5zm0-7.52a2.5 2.5 0 102.51 2.5 2.5 2.5 0 00-2.51-2.47z"/><circle class="cls-1" cx="213.41" cy="47.05" r="3.76"/><path class="cls-1" d="M213.41 50.92a3.87 3.87 0 113.86-3.87 3.86 3.86 0 01-3.86 3.87zm0-7.52a3.66 3.66 0 103.65 3.65 3.65 3.65 0 00-3.65-3.65z"/><circle class="cls-1" cx="195.7" cy="40.54" r="3.76"/><path class="cls-1" d="M195.7 44.4a3.87 3.87 0 113.86-3.86 3.87 3.87 0 01-3.86 3.86zm0-7.52a3.66 3.66 0 103.65 3.66 3.66 3.66 0 00-3.65-3.66z"/><circle class="cls-1" cx="276.07" cy="158.17" r="3.76"/><path class="cls-1" d="M276.07 163.19a5 5 0 115-5 5 5 0 01-5 5zm0-7.52a2.5 2.5 0 102.5 2.5 2.51 2.51 0 00-2.5-2.5z"/><circle class="cls-1" cx="316.62" cy="135" r="3.76"/><path class="cls-1" d="M316.62 140a5 5 0 115-5 5 5 0 01-5 5zm0-7.51a2.5 2.5 0 102.5 2.5 2.5 2.5 0 00-2.5-2.49z"/><circle class="cls-1" cx="256.43" cy="17.82" r="3.76"/><path class="cls-1" d="M256.42 21.68a3.86 3.86 0 113.87-3.86 3.86 3.86 0 01-3.87 3.86zm0-7.51a3.65 3.65 0 103.66 3.65 3.66 3.66 0 00-3.66-3.65z"/><circle class="cls-1" cx="227.4" cy="9.84" r="3.76"/><path class="cls-1" d="M227.4 13.7a3.86 3.86 0 113.86-3.86 3.86 3.86 0 01-3.86 3.86zm0-7.51a3.66 3.66 0 103.65 3.65 3.66 3.66 0 00-3.65-3.65z"/><circle class="cls-1" cx="291.06" cy="34.34" r="3.76"/><path class="cls-1" d="M291.06 38.21a3.87 3.87 0 113.86-3.87 3.88 3.88 0 01-3.86 3.87zm0-7.52a3.66 3.66 0 103.65 3.65 3.66 3.66 0 00-3.65-3.65z"/><circle class="cls-1" cx="132.44" cy="119.95" r="3.76"/><path class="cls-1" d="M132.44 125a5 5 0 115-5 5 5 0 01-5 5zm0-7.52a2.51 2.51 0 102.5 2.5 2.5 2.5 0 00-2.5-2.53zM112.65 18.5a3.46 3.46 0 113.46-3.5 3.46 3.46 0 01-3.46 3.5zm0-4.19a.74.74 0 000 1.47.74.74 0 000-1.47z"/><circle class="cls-1" cx="182.78" cy="91.79" r="20.08"/><path class="cls-1" d="M182.78 114A22.18 22.18 0 11205 91.79 22.19 22.19 0 01182.78 114zm0-40.16a18 18 0 1018 18 18 18 0 00-18-18.04z"/><path class="cls-1" d="M132.61 120.22l-.34-.53 49.1-31.35h-52.36v-.63h54.51l-50.91 32.51z"/><path class="cls-1" transform="rotate(-68.75 158.382 80.395)" d="M158.06 48.96h.63v62.87h-.63z"/><path class="cls-1" d="M171 145.78l-.61-.14 11.72-53.79-31.6-48.23.52-.34 31.75 48.44-.03.13L171 145.78z"/><path class="cls-1" d="M181.6 91.45l15.61-51.43.6.18-14.52 47.86 29.87-41.19.5.37-32.06 44.21z"/><path class="cls-1" d="M222.14 131.69l-42.52-42.96 51.45-15.28.18.6-50.44 14.99 41.78 42.21-.45.44zm174.11-85.9h43.49q15.11 0 26.8 6a43.59 43.59 0 0118.13 17.08q6.43 11.06 6.44 25.9t-6.44 25.9a43.59 43.59 0 01-18.13 17.08q-11.7 6-26.8 6h-43.49zm42.44 75.88q11.82 0 19-7.14t7.16-19.74q0-12.6-7.16-19.74t-19-7.14h-16.43v53.76zm137.31-9.1h-51.78a15.39 15.39 0 006.11 9 19.44 19.44 0 0011.36 3.15 23.18 23.18 0 008.87-1.54 26.21 26.21 0 007.56-5l13.13 14.56Q560.87 145 540.9 145.05A46 46 0 01519 140a36.28 36.28 0 01-14.65-14 39.75 39.75 0 01-5.19-20.3 39.92 39.92 0 015.06-20.09 36.36 36.36 0 0114-13.93 42.37 42.37 0 0139.42-.35 34.42 34.42 0 0113.73 13.58q5.05 8.89 5.06 21.07-.05.3-.43 6.59zm-47.25-23.52a16.12 16.12 0 00-4.93 9.52H553a16.06 16.06 0 00-4.93-9.52 15.07 15.07 0 00-19.31 0zm131.58 23.52h-51.76a15.43 15.43 0 006.11 9 19.44 19.44 0 0011.32 3.18 23.18 23.18 0 008.87-1.54 26.21 26.21 0 007.56-5l13.13 14.56q-10.34 12.23-30.31 12.28a46 46 0 01-21.94-5 36.28 36.28 0 01-14.65-14 39.75 39.75 0 01-5.19-20.3 39.92 39.92 0 015.06-20.09 36.36 36.36 0 0114-13.93 42.37 42.37 0 0139.42-.35 34.42 34.42 0 0113.73 13.58q5.05 8.89 5.06 21.07-.01.25-.41 6.54zM613.1 89.05a16.12 16.12 0 00-4.93 9.52h29.17a16.06 16.06 0 00-4.93-9.52 15.07 15.07 0 00-19.31 0zm121.67-17.57a34.29 34.29 0 0112.61 13.72 43.79 43.79 0 014.62 20.65 43.82 43.82 0 01-4.66 20.65 34.29 34.29 0 01-12.61 13.72 33.43 33.43 0 01-17.68 4.83q-12.48 0-19.84-8V171h-25V68h23.78v7.56q7-8.82 21-8.82a33.43 33.43 0 0117.78 4.74zm-12.16 47.6q4.2-4.83 4.21-13.23t-4.21-13.23a14.43 14.43 0 00-21.55 0q-4.2 4.83-4.2 13.23t4.2 13.23a14.43 14.43 0 0021.55 0zm52.82 23.73q-10.51-2.94-17.08-7.84l8.54-20.44a53.64 53.64 0 0014.32 7 51.52 51.52 0 0016 2.66q15 0 15-8c0-2.8-1.43-4.88-4.27-6.23a74.4 74.4 0 00-13.73-4.27 125.7 125.7 0 01-17.35-5.11 29.25 29.25 0 01-12-8.75q-5-6-5-16.24a29.49 29.49 0 014.59-16.17A31.16 31.16 0 01778.25 48q9.13-4.2 22.4-4.2a74.2 74.2 0 0117.87 2.2A52.9 52.9 0 01834 52.37L826 73q-13.14-7.56-25.49-7.56-7.74 0-11.3 2.45a7.44 7.44 0 00-3.54 6.37q0 3.92 4.2 5.88a72.07 72.07 0 0013.53 4.06 121.13 121.13 0 0117.41 5.11 30 30 0 0112 8.68q5.06 6 5.06 16.17a28.9 28.9 0 01-4.6 16q-4.61 7.14-13.8 11.41t-22.33 4.27a80.1 80.1 0 01-21.71-3.03zM906 75.26q9.32 8.61 9.33 26.39v42.14H892.1V134q-5.39 11.06-21 11.06a31.18 31.18 0 01-14.34-3.06 21.68 21.68 0 01-9.14-8.33 23.24 23.24 0 01-3.08-12q0-10.78 7.75-16.73t23.91-6h14.19q-.66-12-15.11-12a32.64 32.64 0 00-10.38 1.76 27.18 27.18 0 00-8.9 4.83l-8.41-18.06A45.12 45.12 0 01862 69a64.43 64.43 0 0117-2.31q17.69-.04 27 8.57zM885.66 126a12.38 12.38 0 004.73-6.58v-6.58h-10.77q-10.9 0-10.91 7.7a6.94 6.94 0 002.5 5.6 10.27 10.27 0 006.83 2.1 13.22 13.22 0 007.62-2.24zm94.6 14.71a24.37 24.37 0 01-7.69 3.22 40.46 40.46 0 01-9.65 1.12q-13.93 0-21.42-7.28t-7.5-21.7V90.59h-10.37V70.71H934V51h25v19.71h16.3v19.88H959v25.2a9.28 9.28 0 002 6.37 6.9 6.9 0 005.45 2.31 12.62 12.62 0 007.62-2.38z"/></g></g></svg>